<mxfile host="app.diagrams.net" modified="2022-10-09T21:15:42.825Z" agent="5.0 (Windows NT 10.0; Win64; x64) AppleWebKit/537.36 (KHTML, like Gecko) Chrome/106.0.0.0 Safari/537.36 Edg/106.0.1370.37" etag="FgfxZI_kKP_XF571j1U8" version="20.4.0" type="github">
  <diagram name="Page-1" id="c7558073-3199-34d8-9f00-42111426c3f3">
    <mxGraphModel dx="2463" dy="1354" grid="1" gridSize="10" guides="1" tooltips="1" connect="1" arrows="1" fold="1" page="1" pageScale="1" pageWidth="826" pageHeight="1169" background="none" math="0" shadow="0">
      <root>
        <mxCell id="0" />
        <mxCell id="1" parent="0" />
        <mxCell id="ajuiZReFzju_EfFtEYsR-15" value="Loja" style="ellipse;whiteSpace=wrap;html=1;aspect=fixed;fontFamily=Garamond;fontSize=4;points=[[0.5,0,0,0,0]];connectable=0;strokeWidth=5;labelBackgroundColor=none;fillColor=#ffe6cc;strokeColor=#d79b00;fontColor=none;noLabel=1;" vertex="1" parent="1">
          <mxGeometry x="200" y="1450" width="320" height="320" as="geometry" />
        </mxCell>
        <mxCell id="tzdK_BNFdjpBM3N-hgtN-97" value="&lt;div style=&quot;font-size: 4px;&quot;&gt;Sistema&lt;/div&gt;&lt;div style=&quot;font-size: 4px;&quot;&gt;de gerenciamento&lt;/div&gt;&lt;div style=&quot;font-size: 4px;&quot;&gt;de Pedidos&lt;/div&gt;" style="ellipse;whiteSpace=wrap;html=1;aspect=fixed;fontSize=4;fontFamily=Garamond;fillColor=#ffe6cc;strokeColor=#d79b00;fontColor=#FF3224;" parent="1" vertex="1">
          <mxGeometry x="340" y="40" width="160" height="160" as="geometry" />
        </mxCell>
        <mxCell id="tzdK_BNFdjpBM3N-hgtN-98" value="Clientes" style="rounded=0;whiteSpace=wrap;html=1;fontFamily=Garamond;fontSize=4;fillColor=#f8cecc;strokeColor=#b85450;" parent="1" vertex="1">
          <mxGeometry x="40" y="40" width="80" height="40" as="geometry" />
        </mxCell>
        <mxCell id="tzdK_BNFdjpBM3N-hgtN-99" value="Estoque" style="rounded=0;whiteSpace=wrap;html=1;fontFamily=Garamond;fontSize=4;fillColor=#fff2cc;strokeColor=#d6b656;" parent="1" vertex="1">
          <mxGeometry x="40" y="160" width="80" height="40" as="geometry" />
        </mxCell>
        <mxCell id="tzdK_BNFdjpBM3N-hgtN-100" value="Pedido" style="endArrow=none;html=1;rounded=0;fontFamily=Garamond;fontSize=4;exitX=1;exitY=0.25;exitDx=0;exitDy=0;endFill=0;" parent="1" source="tzdK_BNFdjpBM3N-hgtN-98" edge="1">
          <mxGeometry width="50" height="50" relative="1" as="geometry">
            <mxPoint x="110" y="170" as="sourcePoint" />
            <mxPoint x="320" y="50" as="targetPoint" />
          </mxGeometry>
        </mxCell>
        <mxCell id="tzdK_BNFdjpBM3N-hgtN-101" value="Reclamações" style="endArrow=none;html=1;rounded=0;fontFamily=Garamond;fontSize=4;exitX=1;exitY=0.75;exitDx=0;exitDy=0;endFill=0;" parent="1" source="tzdK_BNFdjpBM3N-hgtN-98" edge="1">
          <mxGeometry width="50" height="50" relative="1" as="geometry">
            <mxPoint x="270" y="200" as="sourcePoint" />
            <mxPoint x="320" y="70" as="targetPoint" />
          </mxGeometry>
        </mxCell>
        <mxCell id="tzdK_BNFdjpBM3N-hgtN-103" value="Envia Pneus" style="endArrow=none;html=1;rounded=0;fontFamily=Garamond;fontSize=4;exitX=1;exitY=0.25;exitDx=0;exitDy=0;endFill=0;" parent="1" source="tzdK_BNFdjpBM3N-hgtN-99" edge="1">
          <mxGeometry width="50" height="50" relative="1" as="geometry">
            <mxPoint x="270" y="200" as="sourcePoint" />
            <mxPoint x="320" y="170" as="targetPoint" />
          </mxGeometry>
        </mxCell>
        <mxCell id="tzdK_BNFdjpBM3N-hgtN-104" value="Atualiza o Estoque" style="endArrow=classic;html=1;rounded=0;fontFamily=Garamond;fontSize=4;edgeStyle=orthogonalEdgeStyle;entryX=0.75;entryY=0;entryDx=0;entryDy=0;" parent="1" target="tzdK_BNFdjpBM3N-hgtN-99" edge="1">
          <mxGeometry width="50" height="50" relative="1" as="geometry">
            <mxPoint x="320" y="140" as="sourcePoint" />
            <mxPoint x="100" y="140" as="targetPoint" />
          </mxGeometry>
        </mxCell>
        <mxCell id="tzdK_BNFdjpBM3N-hgtN-105" value="Entrega dos pedidos" style="endArrow=classic;html=1;rounded=0;fontFamily=Garamond;fontSize=4;edgeStyle=orthogonalEdgeStyle;entryX=0.75;entryY=1;entryDx=0;entryDy=0;" parent="1" target="tzdK_BNFdjpBM3N-hgtN-98" edge="1">
          <mxGeometry width="50" height="50" relative="1" as="geometry">
            <mxPoint x="320" y="100" as="sourcePoint" />
            <mxPoint x="100" y="120" as="targetPoint" />
          </mxGeometry>
        </mxCell>
        <mxCell id="tzdK_BNFdjpBM3N-hgtN-106" value="" style="endArrow=none;html=1;rounded=0;fontFamily=Garamond;fontSize=4;entryX=-0.001;entryY=0.39;entryDx=0;entryDy=0;entryPerimeter=0;" parent="1" target="tzdK_BNFdjpBM3N-hgtN-97" edge="1">
          <mxGeometry width="50" height="50" relative="1" as="geometry">
            <mxPoint x="320" y="100" as="sourcePoint" />
            <mxPoint x="320" y="150" as="targetPoint" />
          </mxGeometry>
        </mxCell>
        <mxCell id="tzdK_BNFdjpBM3N-hgtN-107" value="" style="endArrow=none;html=1;rounded=0;fontFamily=Garamond;fontSize=4;entryX=0.009;entryY=0.612;entryDx=0;entryDy=0;entryPerimeter=0;" parent="1" target="tzdK_BNFdjpBM3N-hgtN-97" edge="1">
          <mxGeometry width="50" height="50" relative="1" as="geometry">
            <mxPoint x="320" y="140" as="sourcePoint" />
            <mxPoint x="320" y="150" as="targetPoint" />
          </mxGeometry>
        </mxCell>
        <mxCell id="tzdK_BNFdjpBM3N-hgtN-109" value="" style="endArrow=classic;html=1;rounded=0;fontFamily=Garamond;fontSize=4;endFill=1;" parent="1" target="tzdK_BNFdjpBM3N-hgtN-97" edge="1">
          <mxGeometry width="50" height="50" relative="1" as="geometry">
            <mxPoint x="320" y="170" as="sourcePoint" />
            <mxPoint x="320" y="150" as="targetPoint" />
          </mxGeometry>
        </mxCell>
        <mxCell id="tzdK_BNFdjpBM3N-hgtN-110" value="" style="endArrow=classic;html=1;rounded=0;fontFamily=Garamond;fontSize=4;endFill=1;" parent="1" target="tzdK_BNFdjpBM3N-hgtN-97" edge="1">
          <mxGeometry width="50" height="50" relative="1" as="geometry">
            <mxPoint x="320" y="70" as="sourcePoint" />
            <mxPoint x="320" y="150" as="targetPoint" />
          </mxGeometry>
        </mxCell>
        <mxCell id="tzdK_BNFdjpBM3N-hgtN-111" value="" style="endArrow=classic;html=1;rounded=0;fontFamily=Garamond;fontSize=4;endFill=1;" parent="1" target="tzdK_BNFdjpBM3N-hgtN-97" edge="1">
          <mxGeometry width="50" height="50" relative="1" as="geometry">
            <mxPoint x="320" y="50" as="sourcePoint" />
            <mxPoint x="320" y="150" as="targetPoint" />
          </mxGeometry>
        </mxCell>
        <mxCell id="tzdK_BNFdjpBM3N-hgtN-114" value="Funcionário" style="rounded=0;whiteSpace=wrap;html=1;fontFamily=Garamond;fontSize=4;fillColor=#fff2cc;strokeColor=#d6b656;" parent="1" vertex="1">
          <mxGeometry x="720" y="100" width="80" height="40" as="geometry" />
        </mxCell>
        <mxCell id="tzdK_BNFdjpBM3N-hgtN-119" value="Comissão" style="endArrow=classic;html=1;rounded=0;fontFamily=Garamond;fontSize=4;entryX=0;entryY=0.25;entryDx=0;entryDy=0;" parent="1" source="tzdK_BNFdjpBM3N-hgtN-97" target="tzdK_BNFdjpBM3N-hgtN-114" edge="1">
          <mxGeometry width="50" height="50" relative="1" as="geometry">
            <mxPoint x="520" y="170" as="sourcePoint" />
            <mxPoint x="550" y="150" as="targetPoint" />
            <Array as="points">
              <mxPoint x="530" y="110" />
              <mxPoint x="590" y="110" />
              <mxPoint x="680" y="110" />
            </Array>
            <mxPoint as="offset" />
          </mxGeometry>
        </mxCell>
        <mxCell id="tzdK_BNFdjpBM3N-hgtN-121" value="Sistema&lt;br&gt;de Gerenciamento&lt;br&gt;de Pneus" style="ellipse;whiteSpace=wrap;html=1;aspect=fixed;fontFamily=Garamond;fontSize=4;points=[[0.5,0,0,0,0]];connectable=0;strokeWidth=5;labelBackgroundColor=none;fillColor=#ffe6cc;strokeColor=#d79b00;labelBorderColor=none;fontColor=#FF3224;" parent="1" vertex="1">
          <mxGeometry x="140" y="280" width="560" height="560" as="geometry" />
        </mxCell>
        <mxCell id="tzdK_BNFdjpBM3N-hgtN-123" value="" style="html=1;rounded=0;fontFamily=Garamond;fontSize=4;endArrow=none;endFill=0;dashed=1;" parent="1" edge="1">
          <mxGeometry width="100" relative="1" as="geometry">
            <mxPoint x="20" y="240" as="sourcePoint" />
            <mxPoint x="800" y="240" as="targetPoint" />
          </mxGeometry>
        </mxCell>
        <mxCell id="tzdK_BNFdjpBM3N-hgtN-124" value="Clientes" style="rounded=0;whiteSpace=wrap;html=1;fontFamily=Garamond;fontSize=4;fillColor=#f8cecc;strokeColor=#b85450;" parent="1" vertex="1">
          <mxGeometry x="40" y="290" width="80" height="40" as="geometry" />
        </mxCell>
        <mxCell id="tzdK_BNFdjpBM3N-hgtN-125" value="Estoque" style="rounded=0;whiteSpace=wrap;html=1;fontFamily=Garamond;fontSize=4;fillColor=#fff2cc;strokeColor=#d6b656;" parent="1" vertex="1">
          <mxGeometry x="40" y="790" width="80" height="40" as="geometry" />
        </mxCell>
        <mxCell id="tzdK_BNFdjpBM3N-hgtN-126" value="Pedido" style="endArrow=classic;html=1;rounded=0;fontFamily=Garamond;fontSize=4;exitX=1;exitY=0.25;exitDx=0;exitDy=0;endFill=1;" parent="1" source="tzdK_BNFdjpBM3N-hgtN-124" edge="1">
          <mxGeometry width="50" height="50" relative="1" as="geometry">
            <mxPoint x="100" y="410" as="sourcePoint" />
            <mxPoint x="320" y="300" as="targetPoint" />
          </mxGeometry>
        </mxCell>
        <mxCell id="tzdK_BNFdjpBM3N-hgtN-127" value="Reclamações" style="endArrow=classic;html=1;rounded=0;fontFamily=Garamond;fontSize=4;exitX=1;exitY=0.75;exitDx=0;exitDy=0;endFill=1;" parent="1" source="tzdK_BNFdjpBM3N-hgtN-124" edge="1">
          <mxGeometry width="50" height="50" relative="1" as="geometry">
            <mxPoint x="260" y="440" as="sourcePoint" />
            <mxPoint x="280" y="320" as="targetPoint" />
          </mxGeometry>
        </mxCell>
        <mxCell id="tzdK_BNFdjpBM3N-hgtN-128" value="Envia Pneus" style="endArrow=classic;html=1;rounded=0;fontFamily=Garamond;fontSize=4;exitX=1;exitY=0.25;exitDx=0;exitDy=0;endFill=1;" parent="1" source="tzdK_BNFdjpBM3N-hgtN-125" edge="1">
          <mxGeometry width="50" height="50" relative="1" as="geometry">
            <mxPoint x="270" y="840" as="sourcePoint" />
            <mxPoint x="280" y="800" as="targetPoint" />
          </mxGeometry>
        </mxCell>
        <mxCell id="tzdK_BNFdjpBM3N-hgtN-129" value="Atualiza o Estoque" style="endArrow=classic;html=1;rounded=0;fontFamily=Garamond;fontSize=4;edgeStyle=orthogonalEdgeStyle;entryX=0.75;entryY=0;entryDx=0;entryDy=0;labelBackgroundColor=none;" parent="1" target="tzdK_BNFdjpBM3N-hgtN-125" edge="1">
          <mxGeometry x="0.0006" y="-10" width="50" height="50" relative="1" as="geometry">
            <mxPoint x="230" y="760" as="sourcePoint" />
            <mxPoint x="100" y="780" as="targetPoint" />
            <Array as="points">
              <mxPoint x="100" y="760" />
            </Array>
            <mxPoint as="offset" />
          </mxGeometry>
        </mxCell>
        <mxCell id="tzdK_BNFdjpBM3N-hgtN-132" value="Conta Cliente" style="rounded=0;whiteSpace=wrap;html=1;fontFamily=Garamond;fontSize=4;fillColor=#fff2cc;strokeColor=#d6b656;" parent="1" vertex="1">
          <mxGeometry x="500" y="360" width="80" height="40" as="geometry" />
        </mxCell>
        <mxCell id="tzdK_BNFdjpBM3N-hgtN-133" value="Funcionário" style="rounded=0;whiteSpace=wrap;html=1;fontFamily=Garamond;fontSize=4;fillColor=#fff2cc;strokeColor=#d6b656;" parent="1" vertex="1">
          <mxGeometry x="720" y="790" width="80" height="40" as="geometry" />
        </mxCell>
        <mxCell id="tzdK_BNFdjpBM3N-hgtN-134" value="Cobrança" style="endArrow=none;html=1;rounded=0;fontFamily=Garamond;fontSize=4;entryX=0;entryY=0.25;entryDx=0;entryDy=0;endFill=0;startArrow=classic;startFill=1;labelBackgroundColor=none;" parent="1" target="tzdK_BNFdjpBM3N-hgtN-132" edge="1">
          <mxGeometry y="10" width="50" height="50" relative="1" as="geometry">
            <mxPoint x="340" y="370" as="sourcePoint" />
            <mxPoint x="343" y="410" as="targetPoint" />
            <mxPoint as="offset" />
          </mxGeometry>
        </mxCell>
        <mxCell id="tzdK_BNFdjpBM3N-hgtN-135" value="Crédito" style="endArrow=classic;html=1;rounded=0;fontFamily=Garamond;fontSize=4;entryX=0;entryY=0.75;entryDx=0;entryDy=0;endFill=1;exitX=1;exitY=0.75;exitDx=0;exitDy=0;labelBackgroundColor=none;" parent="1" source="_0-HAE8toTOShQBwGPLb-2" target="tzdK_BNFdjpBM3N-hgtN-132" edge="1">
          <mxGeometry y="-10" width="50" height="50" relative="1" as="geometry">
            <mxPoint x="413" y="390" as="sourcePoint" />
            <mxPoint x="343" y="410" as="targetPoint" />
            <mxPoint as="offset" />
          </mxGeometry>
        </mxCell>
        <mxCell id="tzdK_BNFdjpBM3N-hgtN-136" value="Comissão" style="endArrow=classic;html=1;rounded=0;fontFamily=Garamond;fontSize=4;entryX=0;entryY=0.25;entryDx=0;entryDy=0;" parent="1" target="tzdK_BNFdjpBM3N-hgtN-133" edge="1">
          <mxGeometry width="50" height="50" relative="1" as="geometry">
            <mxPoint x="560" y="800" as="sourcePoint" />
            <mxPoint x="550" y="780" as="targetPoint" />
          </mxGeometry>
        </mxCell>
        <mxCell id="tzdK_BNFdjpBM3N-hgtN-137" value="Veículo" style="endArrow=classic;html=1;rounded=0;fontFamily=Garamond;fontSize=4;entryX=0;entryY=0.5;entryDx=0;entryDy=0;" parent="1" target="tzdK_BNFdjpBM3N-hgtN-97" edge="1">
          <mxGeometry width="50" height="50" relative="1" as="geometry">
            <mxPoint x="80" y="120" as="sourcePoint" />
            <mxPoint x="270" y="110" as="targetPoint" />
          </mxGeometry>
        </mxCell>
        <mxCell id="tzdK_BNFdjpBM3N-hgtN-138" value="" style="endArrow=none;html=1;rounded=0;fontFamily=Garamond;fontSize=4;entryX=0.5;entryY=1;entryDx=0;entryDy=0;" parent="1" target="tzdK_BNFdjpBM3N-hgtN-98" edge="1">
          <mxGeometry width="50" height="50" relative="1" as="geometry">
            <mxPoint x="80" y="120" as="sourcePoint" />
            <mxPoint x="250" y="100" as="targetPoint" />
          </mxGeometry>
        </mxCell>
        <mxCell id="tzdK_BNFdjpBM3N-hgtN-141" value="" style="endArrow=none;html=1;rounded=0;fontFamily=Garamond;fontSize=4;exitX=0.5;exitY=1;exitDx=0;exitDy=0;startArrow=classic;startFill=1;" parent="1" source="tzdK_BNFdjpBM3N-hgtN-124" edge="1">
          <mxGeometry width="50" height="50" relative="1" as="geometry">
            <mxPoint x="59.99999999999977" y="402.08" as="sourcePoint" />
            <mxPoint x="80" y="400" as="targetPoint" />
          </mxGeometry>
        </mxCell>
        <mxCell id="tzdK_BNFdjpBM3N-hgtN-142" value="Entrega" style="endArrow=none;html=1;rounded=0;fontFamily=Garamond;fontSize=4;entryX=0;entryY=0.5;entryDx=0;entryDy=0;endFill=0;" parent="1" edge="1">
          <mxGeometry width="50" height="50" relative="1" as="geometry">
            <mxPoint x="80" y="400" as="sourcePoint" />
            <mxPoint x="189.99999999999977" y="400" as="targetPoint" />
          </mxGeometry>
        </mxCell>
        <mxCell id="_0-HAE8toTOShQBwGPLb-1" value="&lt;font face=&quot;Garamond&quot;&gt;Veículo&lt;/font&gt;" style="endArrow=classic;html=1;rounded=0;exitX=0.75;exitY=1;exitDx=0;exitDy=0;" parent="1" source="tzdK_BNFdjpBM3N-hgtN-124" edge="1">
          <mxGeometry width="50" height="50" relative="1" as="geometry">
            <mxPoint x="150" y="400" as="sourcePoint" />
            <mxPoint x="220" y="360" as="targetPoint" />
            <Array as="points">
              <mxPoint x="100" y="360" />
            </Array>
          </mxGeometry>
        </mxCell>
        <mxCell id="_0-HAE8toTOShQBwGPLb-2" value="Loja" style="rounded=0;whiteSpace=wrap;html=1;fontFamily=Garamond;fillColor=#fff2cc;strokeColor=#d6b656;" parent="1" vertex="1">
          <mxGeometry x="260" y="360" width="80" height="40" as="geometry" />
        </mxCell>
        <mxCell id="_0-HAE8toTOShQBwGPLb-4" value="" style="endArrow=none;html=1;rounded=0;fontFamily=Garamond;endFill=0;startArrow=classic;startFill=1;" parent="1" edge="1">
          <mxGeometry width="50" height="50" relative="1" as="geometry">
            <mxPoint x="320" y="360" as="sourcePoint" />
            <mxPoint x="320" y="300" as="targetPoint" />
          </mxGeometry>
        </mxCell>
        <mxCell id="_0-HAE8toTOShQBwGPLb-5" value="" style="endArrow=none;html=1;rounded=0;fontFamily=Garamond;exitX=0.25;exitY=0;exitDx=0;exitDy=0;startArrow=classic;startFill=1;" parent="1" source="_0-HAE8toTOShQBwGPLb-2" edge="1">
          <mxGeometry width="50" height="50" relative="1" as="geometry">
            <mxPoint x="260" y="410" as="sourcePoint" />
            <mxPoint x="280" y="320" as="targetPoint" />
          </mxGeometry>
        </mxCell>
        <mxCell id="_0-HAE8toTOShQBwGPLb-7" value="" style="endArrow=classic;html=1;rounded=0;fontFamily=Garamond;exitX=0.5;exitY=1;exitDx=0;exitDy=0;entryX=0.5;entryY=0;entryDx=0;entryDy=0;" parent="1" source="_0-HAE8toTOShQBwGPLb-2" edge="1">
          <mxGeometry width="50" height="50" relative="1" as="geometry">
            <mxPoint x="300" y="400" as="sourcePoint" />
            <mxPoint x="300" y="460" as="targetPoint" />
            <Array as="points">
              <mxPoint x="300" y="420" />
            </Array>
          </mxGeometry>
        </mxCell>
        <mxCell id="_0-HAE8toTOShQBwGPLb-8" value="" style="endArrow=classic;html=1;rounded=0;fontFamily=Garamond;" parent="1" edge="1">
          <mxGeometry width="50" height="50" relative="1" as="geometry">
            <mxPoint x="220" y="360" as="sourcePoint" />
            <mxPoint x="260" y="480" as="targetPoint" />
            <Array as="points">
              <mxPoint x="240" y="360" />
              <mxPoint x="240" y="480" />
            </Array>
          </mxGeometry>
        </mxCell>
        <mxCell id="_0-HAE8toTOShQBwGPLb-9" value="Serviço" style="endArrow=classic;html=1;rounded=0;fontFamily=Garamond;exitX=0.75;exitY=1;exitDx=0;exitDy=0;labelBackgroundColor=#FFF2CC;" parent="1" edge="1">
          <mxGeometry x="0.3333" width="50" height="50" relative="1" as="geometry">
            <mxPoint x="280" y="400.0000000000001" as="sourcePoint" />
            <mxPoint x="280" y="459.9999999999999" as="targetPoint" />
            <mxPoint as="offset" />
          </mxGeometry>
        </mxCell>
        <mxCell id="_0-HAE8toTOShQBwGPLb-10" value="" style="endArrow=none;dashed=1;html=1;rounded=0;fontFamily=Garamond;entryX=0.25;entryY=0;entryDx=0;entryDy=0;" parent="1" target="_0-HAE8toTOShQBwGPLb-2" edge="1">
          <mxGeometry width="50" height="50" relative="1" as="geometry">
            <mxPoint x="280" y="400" as="sourcePoint" />
            <mxPoint x="330" y="420" as="targetPoint" />
          </mxGeometry>
        </mxCell>
        <mxCell id="_0-HAE8toTOShQBwGPLb-11" value="" style="endArrow=none;dashed=1;html=1;rounded=0;fontFamily=Garamond;entryX=0.25;entryY=0;entryDx=0;entryDy=0;exitX=0.5;exitY=1;exitDx=0;exitDy=0;" parent="1" source="_0-HAE8toTOShQBwGPLb-2" edge="1">
          <mxGeometry width="50" height="50" relative="1" as="geometry">
            <mxPoint x="320" y="399.9999999999999" as="sourcePoint" />
            <mxPoint x="320.0000000000001" y="360" as="targetPoint" />
          </mxGeometry>
        </mxCell>
        <mxCell id="_0-HAE8toTOShQBwGPLb-17" value="" style="edgeStyle=orthogonalEdgeStyle;rounded=0;orthogonalLoop=1;jettySize=auto;html=1;labelBackgroundColor=none;fontFamily=Garamond;startArrow=classic;startFill=1;endArrow=none;endFill=0;" parent="1" source="_0-HAE8toTOShQBwGPLb-12" edge="1">
          <mxGeometry relative="1" as="geometry">
            <mxPoint x="300.0000000000001" y="500" as="targetPoint" />
          </mxGeometry>
        </mxCell>
        <mxCell id="_0-HAE8toTOShQBwGPLb-12" value="Oficina" style="rounded=0;whiteSpace=wrap;html=1;fontFamily=Garamond;fillColor=#fff2cc;strokeColor=#d6b656;" parent="1" vertex="1">
          <mxGeometry x="240" y="530" width="120" height="60" as="geometry" />
        </mxCell>
        <mxCell id="_0-HAE8toTOShQBwGPLb-14" value="" style="endArrow=none;html=1;rounded=0;fontFamily=Garamond;entryX=0.25;entryY=1;entryDx=0;entryDy=0;endFill=0;" parent="1" target="_0-HAE8toTOShQBwGPLb-12" edge="1">
          <mxGeometry width="50" height="50" relative="1" as="geometry">
            <mxPoint x="230" y="760" as="sourcePoint" />
            <mxPoint x="310" y="630" as="targetPoint" />
            <Array as="points">
              <mxPoint x="270" y="760" />
            </Array>
          </mxGeometry>
        </mxCell>
        <mxCell id="_0-HAE8toTOShQBwGPLb-15" value="" style="endArrow=classic;html=1;rounded=0;fontFamily=Garamond;entryX=0.5;entryY=1;entryDx=0;entryDy=0;" parent="1" target="_0-HAE8toTOShQBwGPLb-12" edge="1">
          <mxGeometry width="50" height="50" relative="1" as="geometry">
            <mxPoint x="280" y="800" as="sourcePoint" />
            <mxPoint x="530" y="670" as="targetPoint" />
            <Array as="points">
              <mxPoint x="300" y="800" />
            </Array>
          </mxGeometry>
        </mxCell>
        <mxCell id="_0-HAE8toTOShQBwGPLb-16" value="OS" style="endArrow=classic;html=1;rounded=0;fontFamily=Garamond;exitX=0.5;exitY=1;exitDx=0;exitDy=0;labelBackgroundColor=none;" parent="1" edge="1">
          <mxGeometry x="-0.3333" y="20" width="50" height="50" relative="1" as="geometry">
            <mxPoint x="300" y="500" as="sourcePoint" />
            <mxPoint x="300" y="530" as="targetPoint" />
            <mxPoint as="offset" />
          </mxGeometry>
        </mxCell>
        <mxCell id="_0-HAE8toTOShQBwGPLb-18" value="" style="endArrow=classic;html=1;rounded=0;labelBackgroundColor=#FFF2CC;fontFamily=Garamond;exitX=0;exitY=0.5;exitDx=0;exitDy=0;" parent="1" source="_0-HAE8toTOShQBwGPLb-12" edge="1">
          <mxGeometry width="50" height="50" relative="1" as="geometry">
            <mxPoint x="310" y="540" as="sourcePoint" />
            <mxPoint x="190" y="400" as="targetPoint" />
            <Array as="points">
              <mxPoint x="210" y="560" />
              <mxPoint x="210" y="400" />
            </Array>
          </mxGeometry>
        </mxCell>
        <mxCell id="_0-HAE8toTOShQBwGPLb-19" value="" style="endArrow=classic;html=1;rounded=0;labelBackgroundColor=#FFF2CC;fontFamily=Garamond;exitX=1;exitY=1;exitDx=0;exitDy=0;" parent="1" source="_0-HAE8toTOShQBwGPLb-2" edge="1">
          <mxGeometry width="50" height="50" relative="1" as="geometry">
            <mxPoint x="490" y="710" as="sourcePoint" />
            <mxPoint x="560" y="800" as="targetPoint" />
            <Array as="points">
              <mxPoint x="340" y="430" />
              <mxPoint x="560" y="430" />
            </Array>
          </mxGeometry>
        </mxCell>
        <mxCell id="_0-HAE8toTOShQBwGPLb-21" value="Recibo" style="endArrow=classic;html=1;rounded=0;labelBackgroundColor=#FFF2CC;fontFamily=Garamond;exitX=0.75;exitY=0;exitDx=0;exitDy=0;entryX=0.75;entryY=1;entryDx=0;entryDy=0;" parent="1" target="_0-HAE8toTOShQBwGPLb-2" edge="1">
          <mxGeometry x="0.3333" width="50" height="50" relative="1" as="geometry">
            <mxPoint x="320" y="460" as="sourcePoint" />
            <mxPoint x="420" y="420" as="targetPoint" />
            <mxPoint as="offset" />
          </mxGeometry>
        </mxCell>
        <mxCell id="_0-HAE8toTOShQBwGPLb-23" value="Loja" style="ellipse;whiteSpace=wrap;html=1;aspect=fixed;fontFamily=Garamond;fontSize=4;points=[[0.5,0,0,0,0]];connectable=0;strokeWidth=5;labelBackgroundColor=none;fillColor=#ffe6cc;strokeColor=#d79b00;fontColor=none;noLabel=1;" parent="1" vertex="1">
          <mxGeometry x="200" y="950" width="320" height="320" as="geometry" />
        </mxCell>
        <mxCell id="_0-HAE8toTOShQBwGPLb-24" value="Clientes" style="rounded=0;whiteSpace=wrap;html=1;fontFamily=Garamond;fontSize=4;fillColor=#f8cecc;strokeColor=#b85450;" parent="1" vertex="1">
          <mxGeometry x="40" y="960" width="80" height="40" as="geometry" />
        </mxCell>
        <mxCell id="_0-HAE8toTOShQBwGPLb-25" value="Pedido" style="endArrow=classic;html=1;rounded=0;fontFamily=Garamond;fontSize=4;exitX=1;exitY=0.25;exitDx=0;exitDy=0;endFill=1;" parent="1" source="_0-HAE8toTOShQBwGPLb-24" edge="1">
          <mxGeometry width="50" height="50" relative="1" as="geometry">
            <mxPoint x="100" y="1080" as="sourcePoint" />
            <mxPoint x="280" y="970" as="targetPoint" />
          </mxGeometry>
        </mxCell>
        <mxCell id="_0-HAE8toTOShQBwGPLb-26" value="Reclamações" style="endArrow=classic;html=1;rounded=0;fontFamily=Garamond;fontSize=4;exitX=1;exitY=0.75;exitDx=0;exitDy=0;endFill=1;" parent="1" source="_0-HAE8toTOShQBwGPLb-24" edge="1">
          <mxGeometry x="-0.0769" width="50" height="50" relative="1" as="geometry">
            <mxPoint x="260" y="1110" as="sourcePoint" />
            <mxPoint x="250" y="990" as="targetPoint" />
            <mxPoint as="offset" />
          </mxGeometry>
        </mxCell>
        <mxCell id="_0-HAE8toTOShQBwGPLb-27" value="" style="endArrow=none;html=1;rounded=0;fontFamily=Garamond;fontSize=4;exitX=0.25;exitY=1;exitDx=0;exitDy=0;startArrow=classic;startFill=1;" parent="1" source="_0-HAE8toTOShQBwGPLb-24" edge="1">
          <mxGeometry width="50" height="50" relative="1" as="geometry">
            <mxPoint x="59.99999999999977" y="1072.08" as="sourcePoint" />
            <mxPoint x="60" y="1060" as="targetPoint" />
          </mxGeometry>
        </mxCell>
        <mxCell id="_0-HAE8toTOShQBwGPLb-28" value="Entrega" style="endArrow=none;html=1;rounded=0;fontFamily=Garamond;fontSize=4;endFill=0;" parent="1" edge="1">
          <mxGeometry x="0.7971" y="10" width="50" height="50" relative="1" as="geometry">
            <mxPoint x="60" y="1060" as="sourcePoint" />
            <mxPoint x="200" y="1610" as="targetPoint" />
            <Array as="points">
              <mxPoint x="60" y="1330" />
              <mxPoint x="60" y="1610" />
            </Array>
            <mxPoint as="offset" />
          </mxGeometry>
        </mxCell>
        <mxCell id="_0-HAE8toTOShQBwGPLb-29" value="&lt;font face=&quot;Garamond&quot;&gt;Veículo&lt;/font&gt;" style="endArrow=classic;html=1;rounded=0;exitX=0.75;exitY=1;exitDx=0;exitDy=0;" parent="1" source="_0-HAE8toTOShQBwGPLb-24" edge="1">
          <mxGeometry x="0.7231" y="20" width="50" height="50" relative="1" as="geometry">
            <mxPoint x="150" y="1070" as="sourcePoint" />
            <mxPoint x="270" y="1480" as="targetPoint" />
            <Array as="points">
              <mxPoint x="100" y="1480" />
            </Array>
            <mxPoint as="offset" />
          </mxGeometry>
        </mxCell>
        <mxCell id="_0-HAE8toTOShQBwGPLb-34" value="Serviço" style="endArrow=classic;html=1;rounded=0;labelBackgroundColor=default;fontFamily=Garamond;exitX=0;exitY=0.75;exitDx=0;exitDy=0;" parent="1" source="tzdK_BNFdjpBM3N-hgtN-114" target="tzdK_BNFdjpBM3N-hgtN-97" edge="1">
          <mxGeometry width="50" height="50" relative="1" as="geometry">
            <mxPoint x="540" y="180" as="sourcePoint" />
            <mxPoint x="590" y="130" as="targetPoint" />
            <Array as="points">
              <mxPoint x="530" y="130" />
            </Array>
          </mxGeometry>
        </mxCell>
        <mxCell id="_0-HAE8toTOShQBwGPLb-37" value="Dados" style="swimlane;horizontal=0;rounded=0;labelBackgroundColor=none;labelBorderColor=none;sketch=0;fontFamily=Garamond;fillColor=#fff2cc;strokeColor=#d6b656;fontColor=default;" parent="1" vertex="1">
          <mxGeometry x="250" y="460" width="100" height="40" as="geometry">
            <mxRectangle x="250" y="460" width="40" height="70" as="alternateBounds" />
          </mxGeometry>
        </mxCell>
        <mxCell id="_0-HAE8toTOShQBwGPLb-38" value="Ordem de Serviço" style="text;html=1;strokeColor=none;fillColor=none;align=center;verticalAlign=middle;whiteSpace=wrap;rounded=0;labelBackgroundColor=none;labelBorderColor=none;sketch=0;fontFamily=Garamond;fontColor=default;" parent="1" vertex="1">
          <mxGeometry x="270" y="460" width="80" height="40" as="geometry" />
        </mxCell>
        <mxCell id="_0-HAE8toTOShQBwGPLb-39" value="Serviço" style="endArrow=classic;html=1;rounded=0;labelBackgroundColor=default;fontFamily=Garamond;exitX=0;exitY=0.75;exitDx=0;exitDy=0;" parent="1" source="tzdK_BNFdjpBM3N-hgtN-133" edge="1">
          <mxGeometry width="50" height="50" relative="1" as="geometry">
            <mxPoint x="720" y="822.96" as="sourcePoint" />
            <mxPoint x="530" y="820" as="targetPoint" />
            <Array as="points">
              <mxPoint x="560" y="820" />
            </Array>
          </mxGeometry>
        </mxCell>
        <mxCell id="_0-HAE8toTOShQBwGPLb-40" value="" style="endArrow=classic;html=1;rounded=0;labelBackgroundColor=default;fontFamily=Garamond;fontColor=default;entryX=0.75;entryY=1;entryDx=0;entryDy=0;" parent="1" target="_0-HAE8toTOShQBwGPLb-12" edge="1">
          <mxGeometry width="50" height="50" relative="1" as="geometry">
            <mxPoint x="530" y="820" as="sourcePoint" />
            <mxPoint x="550" y="610" as="targetPoint" />
            <Array as="points">
              <mxPoint x="430" y="820" />
              <mxPoint x="370" y="770" />
              <mxPoint x="330" y="700" />
            </Array>
          </mxGeometry>
        </mxCell>
        <mxCell id="ajuiZReFzju_EfFtEYsR-2" value="Pedidos" style="rounded=0;whiteSpace=wrap;html=1;fontFamily=Garamond;fillColor=#fff2cc;strokeColor=#d6b656;" vertex="1" parent="1">
          <mxGeometry x="320" y="970" width="80" height="40" as="geometry" />
        </mxCell>
        <mxCell id="ajuiZReFzju_EfFtEYsR-3" value="" style="endArrow=classic;html=1;rounded=0;entryX=0;entryY=0.5;entryDx=0;entryDy=0;" edge="1" parent="1" target="ajuiZReFzju_EfFtEYsR-2">
          <mxGeometry width="50" height="50" relative="1" as="geometry">
            <mxPoint x="280" y="970" as="sourcePoint" />
            <mxPoint x="310" y="1000" as="targetPoint" />
            <Array as="points">
              <mxPoint x="280" y="990" />
            </Array>
          </mxGeometry>
        </mxCell>
        <mxCell id="ajuiZReFzju_EfFtEYsR-5" value="Pagamento" style="endArrow=classic;html=1;rounded=0;fontFamily=Garamond;labelBackgroundColor=none;entryX=1;entryY=0;entryDx=0;entryDy=0;" edge="1" parent="1" target="ajuiZReFzju_EfFtEYsR-7">
          <mxGeometry x="-0.2993" y="32" width="50" height="50" relative="1" as="geometry">
            <mxPoint x="380" y="1010" as="sourcePoint" />
            <mxPoint x="380" y="1060" as="targetPoint" />
            <Array as="points">
              <mxPoint x="380" y="1020" />
              <mxPoint x="400" y="1030" />
            </Array>
            <mxPoint x="-2" y="-10" as="offset" />
          </mxGeometry>
        </mxCell>
        <mxCell id="ajuiZReFzju_EfFtEYsR-6" value="ID" style="endArrow=classic;html=1;rounded=0;labelBackgroundColor=none;fontFamily=Garamond;entryX=0;entryY=0;entryDx=0;entryDy=0;" edge="1" parent="1" target="ajuiZReFzju_EfFtEYsR-7">
          <mxGeometry x="-0.2993" y="-14" width="50" height="50" relative="1" as="geometry">
            <mxPoint x="340" y="1010" as="sourcePoint" />
            <mxPoint x="334" y="1060" as="targetPoint" />
            <Array as="points">
              <mxPoint x="340" y="1020" />
              <mxPoint x="320" y="1030" />
            </Array>
            <mxPoint x="4" y="-10" as="offset" />
          </mxGeometry>
        </mxCell>
        <mxCell id="ajuiZReFzju_EfFtEYsR-7" value="Caixa" style="rounded=0;whiteSpace=wrap;html=1;fontFamily=Garamond;fillColor=#fff2cc;strokeColor=#d6b656;" vertex="1" parent="1">
          <mxGeometry x="320" y="1090" width="80" height="40" as="geometry" />
        </mxCell>
        <mxCell id="ajuiZReFzju_EfFtEYsR-8" value="&lt;font style=&quot;font-size: 4px;&quot;&gt;Serviço&lt;/font&gt;" style="endArrow=classic;html=1;rounded=0;labelBackgroundColor=none;fontFamily=Garamond;exitX=0.5;exitY=1;exitDx=0;exitDy=0;fontSize=8;entryX=0.5;entryY=0;entryDx=0;entryDy=0;" edge="1" parent="1" source="ajuiZReFzju_EfFtEYsR-2" target="ajuiZReFzju_EfFtEYsR-7">
          <mxGeometry width="50" height="50" relative="1" as="geometry">
            <mxPoint x="230" y="1120" as="sourcePoint" />
            <mxPoint x="360" y="1060" as="targetPoint" />
          </mxGeometry>
        </mxCell>
        <mxCell id="ajuiZReFzju_EfFtEYsR-9" value="" style="endArrow=classic;html=1;rounded=0;labelBackgroundColor=none;fontFamily=Garamond;fontSize=4;entryX=0;entryY=0.5;entryDx=0;entryDy=0;" edge="1" parent="1" target="ajuiZReFzju_EfFtEYsR-7">
          <mxGeometry width="50" height="50" relative="1" as="geometry">
            <mxPoint x="250" y="990" as="sourcePoint" />
            <mxPoint x="320" y="1120" as="targetPoint" />
            <Array as="points">
              <mxPoint x="270" y="990" />
              <mxPoint x="270" y="1070" />
            </Array>
          </mxGeometry>
        </mxCell>
        <mxCell id="ajuiZReFzju_EfFtEYsR-10" value="&lt;font color=&quot;#190033&quot;&gt;Conta&lt;br&gt;Cliente&lt;br&gt;&lt;/font&gt;" style="rounded=0;whiteSpace=wrap;html=1;labelBorderColor=none;fontFamily=Garamond;fontSize=4;fillColor=#fff2cc;strokeColor=#d6b656;" vertex="1" parent="1">
          <mxGeometry x="320" y="1200" width="80" height="40" as="geometry" />
        </mxCell>
        <mxCell id="ajuiZReFzju_EfFtEYsR-11" value="Cobrança" style="endArrow=classic;html=1;rounded=0;labelBackgroundColor=none;fontFamily=Garamond;fontSize=4;fontColor=#190033;exitX=0.75;exitY=1;exitDx=0;exitDy=0;entryX=0.75;entryY=0;entryDx=0;entryDy=0;" edge="1" parent="1" source="ajuiZReFzju_EfFtEYsR-7" target="ajuiZReFzju_EfFtEYsR-10">
          <mxGeometry x="-0.1429" y="30" width="50" height="50" relative="1" as="geometry">
            <mxPoint x="360" y="1180" as="sourcePoint" />
            <mxPoint x="410" y="1130" as="targetPoint" />
            <mxPoint as="offset" />
          </mxGeometry>
        </mxCell>
        <mxCell id="ajuiZReFzju_EfFtEYsR-12" value="" style="endArrow=classic;html=1;rounded=0;labelBackgroundColor=none;fontFamily=Garamond;fontSize=4;fontColor=#190033;exitX=0.25;exitY=1;exitDx=0;exitDy=0;" edge="1" parent="1" source="ajuiZReFzju_EfFtEYsR-7">
          <mxGeometry width="50" height="50" relative="1" as="geometry">
            <mxPoint x="360" y="1180" as="sourcePoint" />
            <mxPoint x="340" y="1200" as="targetPoint" />
          </mxGeometry>
        </mxCell>
        <mxCell id="ajuiZReFzju_EfFtEYsR-14" value="Crédito" style="edgeLabel;html=1;align=center;verticalAlign=middle;resizable=0;points=[];fontSize=4;fontFamily=Garamond;fontColor=#190033;labelBackgroundColor=none;" vertex="1" connectable="0" parent="ajuiZReFzju_EfFtEYsR-12">
          <mxGeometry x="0.1314" relative="1" as="geometry">
            <mxPoint x="-30" y="-10" as="offset" />
          </mxGeometry>
        </mxCell>
        <mxCell id="ajuiZReFzju_EfFtEYsR-20" value="Pedido Novo" style="endArrow=none;dashed=1;html=1;rounded=0;labelBackgroundColor=none;fontFamily=Garamond;fontSize=4;fontColor=none;exitX=1;exitY=0.75;exitDx=0;exitDy=0;" edge="1" parent="1" source="ajuiZReFzju_EfFtEYsR-7">
          <mxGeometry x="0.0827" y="-10" width="50" height="50" relative="1" as="geometry">
            <mxPoint x="410" y="1130" as="sourcePoint" />
            <mxPoint x="490" y="1110" as="targetPoint" />
            <Array as="points">
              <mxPoint x="470" y="1120" />
            </Array>
            <mxPoint as="offset" />
          </mxGeometry>
        </mxCell>
        <mxCell id="ajuiZReFzju_EfFtEYsR-21" value="Correção" style="endArrow=none;dashed=1;html=1;rounded=0;labelBackgroundColor=none;fontFamily=Garamond;fontSize=4;fontColor=none;" edge="1" parent="1">
          <mxGeometry x="-0.1338" y="10" width="50" height="50" relative="1" as="geometry">
            <mxPoint x="400" y="1100" as="sourcePoint" />
            <mxPoint x="490" y="1110" as="targetPoint" />
            <Array as="points">
              <mxPoint x="470" y="1100" />
            </Array>
            <mxPoint as="offset" />
          </mxGeometry>
        </mxCell>
        <mxCell id="ajuiZReFzju_EfFtEYsR-24" value="" style="endArrow=classic;html=1;rounded=0;labelBackgroundColor=none;fontFamily=Garamond;fontSize=4;fontColor=none;" edge="1" parent="1">
          <mxGeometry width="50" height="50" relative="1" as="geometry">
            <mxPoint x="490" y="1110" as="sourcePoint" />
            <mxPoint x="520" y="1610" as="targetPoint" />
            <Array as="points">
              <mxPoint x="660" y="1110" />
              <mxPoint x="660" y="1610" />
              <mxPoint x="590" y="1610" />
            </Array>
          </mxGeometry>
        </mxCell>
        <mxCell id="ajuiZReFzju_EfFtEYsR-25" value="Serviço" style="edgeLabel;html=1;align=center;verticalAlign=middle;resizable=0;points=[];fontSize=4;fontFamily=Garamond;fontColor=none;" vertex="1" connectable="0" parent="ajuiZReFzju_EfFtEYsR-24">
          <mxGeometry x="-0.2143" y="3" relative="1" as="geometry">
            <mxPoint x="-53" y="-154" as="offset" />
          </mxGeometry>
        </mxCell>
        <mxCell id="ajuiZReFzju_EfFtEYsR-26" value="" style="endArrow=none;dashed=1;html=1;dashPattern=1 3;strokeWidth=2;rounded=0;labelBackgroundColor=none;fontFamily=Garamond;fontSize=4;fontColor=none;" edge="1" parent="1">
          <mxGeometry width="50" height="50" relative="1" as="geometry">
            <mxPoint x="660" y="1360" as="sourcePoint" />
            <mxPoint x="620" y="1360" as="targetPoint" />
          </mxGeometry>
        </mxCell>
        <mxCell id="ajuiZReFzju_EfFtEYsR-27" value="Ordem de Serviço" style="swimlane;labelBackgroundColor=none;labelBorderColor=none;fontFamily=Garamond;fontSize=15;fillColor=#e1d5e7;strokeColor=#9673a6;" vertex="1" parent="1">
          <mxGeometry x="420" y="1280" width="200" height="165" as="geometry" />
        </mxCell>
        <mxCell id="ajuiZReFzju_EfFtEYsR-29" value="ID: int" style="text;html=1;align=center;verticalAlign=middle;resizable=0;points=[];autosize=1;strokeColor=none;fillColor=none;fontSize=15;fontFamily=Garamond;fontColor=none;" vertex="1" parent="ajuiZReFzju_EfFtEYsR-27">
          <mxGeometry x="-6" y="20" width="80" height="30" as="geometry" />
        </mxCell>
        <mxCell id="ajuiZReFzju_EfFtEYsR-30" value="Serviço: string&amp;nbsp; &amp;nbsp;" style="text;html=1;align=center;verticalAlign=middle;resizable=0;points=[];autosize=1;strokeColor=none;fillColor=none;fontSize=15;fontFamily=Garamond;fontColor=none;" vertex="1" parent="ajuiZReFzju_EfFtEYsR-27">
          <mxGeometry x="-6" y="40" width="170" height="30" as="geometry" />
        </mxCell>
        <mxCell id="ajuiZReFzju_EfFtEYsR-31" value="Veículo: int" style="text;html=1;align=center;verticalAlign=middle;resizable=0;points=[];autosize=1;strokeColor=none;fillColor=none;fontSize=15;fontFamily=Garamond;fontColor=none;" vertex="1" parent="ajuiZReFzju_EfFtEYsR-27">
          <mxGeometry x="-6" y="65" width="120" height="30" as="geometry" />
        </mxCell>
        <mxCell id="ajuiZReFzju_EfFtEYsR-32" value="Correções: string/null" style="text;html=1;align=center;verticalAlign=middle;resizable=0;points=[];autosize=1;strokeColor=none;fillColor=none;fontSize=15;fontFamily=Garamond;fontColor=none;" vertex="1" parent="ajuiZReFzju_EfFtEYsR-27">
          <mxGeometry x="-6" y="90" width="200" height="30" as="geometry" />
        </mxCell>
        <mxCell id="ajuiZReFzju_EfFtEYsR-33" value="&amp;nbsp; &amp;nbsp;Peças: [string]list" style="text;html=1;strokeColor=none;fillColor=none;align=center;verticalAlign=middle;whiteSpace=wrap;rounded=0;labelBackgroundColor=none;labelBorderColor=none;fontFamily=Garamond;fontSize=15;fontColor=none;" vertex="1" parent="ajuiZReFzju_EfFtEYsR-27">
          <mxGeometry x="-27" y="110" width="200" height="30" as="geometry" />
        </mxCell>
        <mxCell id="ajuiZReFzju_EfFtEYsR-34" value="Funcionario: int" style="text;html=1;align=center;verticalAlign=middle;resizable=0;points=[];autosize=1;strokeColor=none;fillColor=none;fontSize=15;fontFamily=Garamond;fontColor=none;" vertex="1" parent="ajuiZReFzju_EfFtEYsR-27">
          <mxGeometry x="-7" y="135" width="160" height="30" as="geometry" />
        </mxCell>
        <mxCell id="ajuiZReFzju_EfFtEYsR-35" value="" style="endArrow=blockThin;dashed=1;html=1;dashPattern=1 3;strokeWidth=2;rounded=0;labelBackgroundColor=none;fontFamily=Garamond;fontSize=15;fontColor=none;entryX=1;entryY=0.5;entryDx=0;entryDy=0;endFill=1;" edge="1" parent="1" target="_0-HAE8toTOShQBwGPLb-38">
          <mxGeometry width="50" height="50" relative="1" as="geometry">
            <mxPoint x="330" y="630" as="sourcePoint" />
            <mxPoint x="490" y="630" as="targetPoint" />
            <Array as="points">
              <mxPoint x="510" y="630" />
              <mxPoint x="510" y="480" />
            </Array>
          </mxGeometry>
        </mxCell>
        <mxCell id="ajuiZReFzju_EfFtEYsR-37" value="Informações do Func." style="edgeLabel;html=1;align=center;verticalAlign=middle;resizable=0;points=[];fontSize=15;fontFamily=Garamond;fontColor=none;labelBackgroundColor=none;" vertex="1" connectable="0" parent="ajuiZReFzju_EfFtEYsR-35">
          <mxGeometry x="0.6451" y="-2" relative="1" as="geometry">
            <mxPoint x="17" y="-18" as="offset" />
          </mxGeometry>
        </mxCell>
        <mxCell id="ajuiZReFzju_EfFtEYsR-38" value="" style="endArrow=classic;dashed=1;html=1;dashPattern=1 3;strokeWidth=2;rounded=0;labelBackgroundColor=none;fontFamily=Garamond;fontSize=15;fontColor=none;endFill=0;" edge="1" parent="1" target="ajuiZReFzju_EfFtEYsR-31">
          <mxGeometry width="50" height="50" relative="1" as="geometry">
            <mxPoint x="100" y="1360" as="sourcePoint" />
            <mxPoint x="380" y="1420" as="targetPoint" />
          </mxGeometry>
        </mxCell>
        <mxCell id="ajuiZReFzju_EfFtEYsR-39" value="Dados do Carro" style="text;html=1;align=center;verticalAlign=middle;resizable=0;points=[];autosize=1;strokeColor=none;fillColor=none;fontSize=15;fontFamily=Garamond;fontColor=none;" vertex="1" parent="1">
          <mxGeometry x="190" y="1330" width="140" height="30" as="geometry" />
        </mxCell>
        <mxCell id="ajuiZReFzju_EfFtEYsR-40" value="Funcionário" style="rounded=0;whiteSpace=wrap;html=1;fontFamily=Garamond;fontSize=4;fillColor=#fff2cc;strokeColor=#d6b656;" vertex="1" parent="1">
          <mxGeometry x="700" y="1680" width="80" height="40" as="geometry" />
        </mxCell>
        <mxCell id="ajuiZReFzju_EfFtEYsR-41" value="" style="endArrow=classic;html=1;strokeWidth=1;rounded=0;labelBackgroundColor=none;fontFamily=Garamond;fontSize=15;fontColor=none;exitX=0.5;exitY=0;exitDx=0;exitDy=0;endFill=1;" edge="1" parent="1" source="ajuiZReFzju_EfFtEYsR-40">
          <mxGeometry width="50" height="50" relative="1" as="geometry">
            <mxPoint x="600" y="1640" as="sourcePoint" />
            <mxPoint x="620" y="1430" as="targetPoint" />
            <Array as="points">
              <mxPoint x="740" y="1430" />
              <mxPoint x="690" y="1430" />
            </Array>
          </mxGeometry>
        </mxCell>
        <mxCell id="ajuiZReFzju_EfFtEYsR-42" value="ID_FUNC" style="text;html=1;strokeColor=none;fillColor=none;align=center;verticalAlign=middle;whiteSpace=wrap;rounded=0;labelBackgroundColor=none;labelBorderColor=none;fontFamily=Garamond;fontSize=15;fontColor=none;" vertex="1" parent="1">
          <mxGeometry x="710" y="1400" width="60" height="30" as="geometry" />
        </mxCell>
        <mxCell id="ajuiZReFzju_EfFtEYsR-43" value="" style="endArrow=classic;html=1;rounded=0;labelBackgroundColor=none;strokeWidth=1;fontFamily=Garamond;fontSize=15;fontColor=none;exitX=1;exitY=1;exitDx=0;exitDy=0;entryX=1;entryY=0.5;entryDx=0;entryDy=0;" edge="1" parent="1" source="ajuiZReFzju_EfFtEYsR-7" target="ajuiZReFzju_EfFtEYsR-40">
          <mxGeometry width="50" height="50" relative="1" as="geometry">
            <mxPoint x="490" y="1200" as="sourcePoint" />
            <mxPoint x="540" y="1150" as="targetPoint" />
            <Array as="points">
              <mxPoint x="420" y="1150" />
              <mxPoint x="810" y="1150" />
              <mxPoint x="810" y="1700" />
            </Array>
          </mxGeometry>
        </mxCell>
        <mxCell id="ajuiZReFzju_EfFtEYsR-44" value="Comissão" style="edgeLabel;html=1;align=center;verticalAlign=middle;resizable=0;points=[];fontSize=15;fontFamily=Garamond;fontColor=none;" vertex="1" connectable="0" parent="ajuiZReFzju_EfFtEYsR-43">
          <mxGeometry x="-0.3319" y="-1" relative="1" as="geometry">
            <mxPoint x="14" y="-21" as="offset" />
          </mxGeometry>
        </mxCell>
        <mxCell id="ajuiZReFzju_EfFtEYsR-45" value="Baia&lt;br&gt;Mecânica" style="rounded=0;whiteSpace=wrap;html=1;labelBackgroundColor=none;labelBorderColor=none;fontFamily=Garamond;fontSize=15;fillColor=#fff2cc;strokeColor=#d6b656;" vertex="1" parent="1">
          <mxGeometry x="300" y="1580" width="120" height="60" as="geometry" />
        </mxCell>
        <mxCell id="ajuiZReFzju_EfFtEYsR-46" value="" style="endArrow=classic;html=1;rounded=0;labelBackgroundColor=none;strokeWidth=1;fontFamily=Garamond;fontSize=15;fontColor=none;exitX=0;exitY=0.5;exitDx=0;exitDy=0;" edge="1" parent="1" source="ajuiZReFzju_EfFtEYsR-40">
          <mxGeometry width="50" height="50" relative="1" as="geometry">
            <mxPoint x="450" y="1690" as="sourcePoint" />
            <mxPoint x="490" y="1700" as="targetPoint" />
          </mxGeometry>
        </mxCell>
        <mxCell id="ajuiZReFzju_EfFtEYsR-49" value="Serviço" style="edgeLabel;html=1;align=center;verticalAlign=middle;resizable=0;points=[];fontSize=15;fontFamily=Garamond;fontColor=none;" vertex="1" connectable="0" parent="ajuiZReFzju_EfFtEYsR-46">
          <mxGeometry x="-0.2952" relative="1" as="geometry">
            <mxPoint y="-20" as="offset" />
          </mxGeometry>
        </mxCell>
        <mxCell id="ajuiZReFzju_EfFtEYsR-47" value="" style="endArrow=classic;html=1;rounded=0;labelBackgroundColor=none;strokeWidth=1;fontFamily=Garamond;fontSize=15;fontColor=none;entryX=1;entryY=0.5;entryDx=0;entryDy=0;" edge="1" parent="1" target="ajuiZReFzju_EfFtEYsR-45">
          <mxGeometry width="50" height="50" relative="1" as="geometry">
            <mxPoint x="520" y="1610" as="sourcePoint" />
            <mxPoint x="450" y="1550" as="targetPoint" />
          </mxGeometry>
        </mxCell>
        <mxCell id="ajuiZReFzju_EfFtEYsR-48" value="" style="endArrow=classic;html=1;rounded=0;labelBackgroundColor=none;strokeWidth=1;fontFamily=Garamond;fontSize=15;fontColor=none;entryX=0.75;entryY=1;entryDx=0;entryDy=0;" edge="1" parent="1" target="ajuiZReFzju_EfFtEYsR-45">
          <mxGeometry width="50" height="50" relative="1" as="geometry">
            <mxPoint x="490" y="1700" as="sourcePoint" />
            <mxPoint x="460" y="1650" as="targetPoint" />
            <Array as="points">
              <mxPoint x="390" y="1700" />
            </Array>
          </mxGeometry>
        </mxCell>
        <mxCell id="ajuiZReFzju_EfFtEYsR-50" value="Depósito" style="rounded=0;whiteSpace=wrap;html=1;labelBackgroundColor=none;labelBorderColor=none;fontFamily=Garamond;fontSize=15;fillColor=#fff2cc;strokeColor=#d6b656;" vertex="1" parent="1">
          <mxGeometry x="40" y="1680" width="80" height="40" as="geometry" />
        </mxCell>
        <mxCell id="ajuiZReFzju_EfFtEYsR-51" value="" style="endArrow=classic;html=1;rounded=0;labelBackgroundColor=none;strokeWidth=1;fontFamily=Garamond;fontSize=15;fontColor=none;exitX=1;exitY=0.5;exitDx=0;exitDy=0;entryX=0.25;entryY=1;entryDx=0;entryDy=0;" edge="1" parent="1" source="ajuiZReFzju_EfFtEYsR-50" target="ajuiZReFzju_EfFtEYsR-45">
          <mxGeometry width="50" height="50" relative="1" as="geometry">
            <mxPoint x="250" y="1680" as="sourcePoint" />
            <mxPoint x="330" y="1700" as="targetPoint" />
            <Array as="points">
              <mxPoint x="330" y="1700" />
            </Array>
          </mxGeometry>
        </mxCell>
        <mxCell id="ajuiZReFzju_EfFtEYsR-52" value="Garagem" style="rounded=0;whiteSpace=wrap;html=1;labelBackgroundColor=none;labelBorderColor=none;fontFamily=Garamond;fontSize=15;fillColor=#fff2cc;strokeColor=#d6b656;" vertex="1" parent="1">
          <mxGeometry x="320" y="1500" width="80" height="40" as="geometry" />
        </mxCell>
        <mxCell id="ajuiZReFzju_EfFtEYsR-53" value="" style="endArrow=classic;html=1;rounded=0;labelBackgroundColor=none;strokeWidth=1;fontFamily=Garamond;fontSize=15;fontColor=none;entryX=0.5;entryY=0;entryDx=0;entryDy=0;" edge="1" parent="1" target="ajuiZReFzju_EfFtEYsR-52">
          <mxGeometry width="50" height="50" relative="1" as="geometry">
            <mxPoint x="270" y="1480" as="sourcePoint" />
            <mxPoint x="370" y="1530" as="targetPoint" />
            <Array as="points">
              <mxPoint x="360" y="1480" />
            </Array>
          </mxGeometry>
        </mxCell>
        <mxCell id="ajuiZReFzju_EfFtEYsR-54" value="" style="endArrow=classic;html=1;rounded=0;labelBackgroundColor=none;strokeWidth=1;fontFamily=Garamond;fontSize=15;fontColor=none;exitX=0;exitY=0.5;exitDx=0;exitDy=0;" edge="1" parent="1" source="ajuiZReFzju_EfFtEYsR-45">
          <mxGeometry width="50" height="50" relative="1" as="geometry">
            <mxPoint x="310" y="1650" as="sourcePoint" />
            <mxPoint x="200" y="1610" as="targetPoint" />
          </mxGeometry>
        </mxCell>
        <mxCell id="ajuiZReFzju_EfFtEYsR-55" value="" style="endArrow=classic;html=1;rounded=0;labelBackgroundColor=none;strokeWidth=1;fontFamily=Garamond;fontSize=15;fontColor=none;" edge="1" parent="1">
          <mxGeometry width="50" height="50" relative="1" as="geometry">
            <mxPoint x="360" y="1540" as="sourcePoint" />
            <mxPoint x="360" y="1580" as="targetPoint" />
          </mxGeometry>
        </mxCell>
        <mxCell id="ajuiZReFzju_EfFtEYsR-56" value="Veículo e Peças" style="edgeLabel;html=1;align=center;verticalAlign=middle;resizable=0;points=[];fontSize=15;fontFamily=Garamond;fontColor=none;labelBackgroundColor=none;" vertex="1" connectable="0" parent="ajuiZReFzju_EfFtEYsR-55">
          <mxGeometry x="-0.4" relative="1" as="geometry">
            <mxPoint as="offset" />
          </mxGeometry>
        </mxCell>
        <mxCell id="ajuiZReFzju_EfFtEYsR-57" value="" style="endArrow=classic;html=1;rounded=0;labelBackgroundColor=none;strokeWidth=1;fontFamily=Garamond;fontSize=15;fontColor=none;exitX=0.5;exitY=0;exitDx=0;exitDy=0;" edge="1" parent="1" source="ajuiZReFzju_EfFtEYsR-50">
          <mxGeometry width="50" height="50" relative="1" as="geometry">
            <mxPoint x="270" y="1640" as="sourcePoint" />
            <mxPoint x="230" y="1520" as="targetPoint" />
            <Array as="points">
              <mxPoint x="80" y="1520" />
            </Array>
          </mxGeometry>
        </mxCell>
        <mxCell id="ajuiZReFzju_EfFtEYsR-59" value="Peças/Pneus" style="edgeLabel;html=1;align=center;verticalAlign=middle;resizable=0;points=[];fontSize=15;fontFamily=Garamond;fontColor=none;" vertex="1" connectable="0" parent="ajuiZReFzju_EfFtEYsR-57">
          <mxGeometry x="0.5788" relative="1" as="geometry">
            <mxPoint x="-5" y="10" as="offset" />
          </mxGeometry>
        </mxCell>
        <mxCell id="ajuiZReFzju_EfFtEYsR-58" value="" style="endArrow=classic;html=1;rounded=0;labelBackgroundColor=none;strokeWidth=1;fontFamily=Garamond;fontSize=15;fontColor=none;entryX=0;entryY=0.5;entryDx=0;entryDy=0;" edge="1" parent="1" target="ajuiZReFzju_EfFtEYsR-52">
          <mxGeometry width="50" height="50" relative="1" as="geometry">
            <mxPoint x="230" y="1520" as="sourcePoint" />
            <mxPoint x="320" y="1590" as="targetPoint" />
          </mxGeometry>
        </mxCell>
        <mxCell id="ajuiZReFzju_EfFtEYsR-60" value="" style="endArrow=none;dashed=1;html=1;dashPattern=1 3;strokeWidth=2;rounded=0;labelBackgroundColor=none;fontFamily=Garamond;fontSize=15;fontColor=none;entryX=0.124;entryY=-0.008;entryDx=0;entryDy=0;entryPerimeter=0;exitX=0.25;exitY=0;exitDx=0;exitDy=0;endFill=0;startArrow=classic;startFill=1;" edge="1" parent="1" source="ajuiZReFzju_EfFtEYsR-50" target="ajuiZReFzju_EfFtEYsR-33">
          <mxGeometry width="50" height="50" relative="1" as="geometry">
            <mxPoint x="30" y="1390" as="sourcePoint" />
            <mxPoint x="400" y="1380" as="targetPoint" />
            <Array as="points">
              <mxPoint x="30" y="1640" />
              <mxPoint x="30" y="1390" />
            </Array>
          </mxGeometry>
        </mxCell>
        <mxCell id="ajuiZReFzju_EfFtEYsR-61" value="Pedido de Peça" style="text;html=1;align=center;verticalAlign=middle;resizable=0;points=[];autosize=1;strokeColor=none;fillColor=none;fontSize=15;fontFamily=Garamond;fontColor=none;" vertex="1" parent="1">
          <mxGeometry x="190" y="1390" width="140" height="30" as="geometry" />
        </mxCell>
        <mxCell id="ajuiZReFzju_EfFtEYsR-62" value="" style="endArrow=none;dashed=1;html=1;dashPattern=1 3;strokeWidth=2;rounded=0;labelBackgroundColor=none;fontFamily=Garamond;fontSize=15;fontColor=none;exitX=1;exitY=0.5;exitDx=0;exitDy=0;entryX=0.675;entryY=1.039;entryDx=0;entryDy=0;entryPerimeter=0;" edge="1" parent="1" source="ajuiZReFzju_EfFtEYsR-52" target="ajuiZReFzju_EfFtEYsR-34">
          <mxGeometry width="50" height="50" relative="1" as="geometry">
            <mxPoint x="460" y="1570" as="sourcePoint" />
            <mxPoint x="510" y="1520" as="targetPoint" />
            <Array as="points">
              <mxPoint x="521" y="1520" />
            </Array>
          </mxGeometry>
        </mxCell>
        <mxCell id="ajuiZReFzju_EfFtEYsR-63" value="Devolução&lt;br&gt;(peças)" style="text;html=1;align=center;verticalAlign=middle;resizable=0;points=[];autosize=1;strokeColor=none;fillColor=none;fontSize=15;fontFamily=Garamond;fontColor=none;" vertex="1" parent="1">
          <mxGeometry x="520" y="1470" width="100" height="50" as="geometry" />
        </mxCell>
        <mxCell id="ajuiZReFzju_EfFtEYsR-65" value="" style="endArrow=none;dashed=1;html=1;rounded=0;labelBackgroundColor=none;strokeWidth=1;fontFamily=Garamond;fontSize=15;fontColor=none;" edge="1" parent="1">
          <mxGeometry width="50" height="50" relative="1" as="geometry">
            <mxPoint x="800" y="900" as="sourcePoint" />
            <mxPoint x="10" y="900" as="targetPoint" />
          </mxGeometry>
        </mxCell>
        <mxCell id="ajuiZReFzju_EfFtEYsR-66" value="Diagrama de Contexto" style="text;html=1;align=center;verticalAlign=middle;resizable=0;points=[];autosize=1;strokeColor=none;fillColor=none;fontSize=15;fontFamily=Garamond;fontColor=none;" vertex="1" parent="1">
          <mxGeometry width="190" height="30" as="geometry" />
        </mxCell>
        <mxCell id="ajuiZReFzju_EfFtEYsR-67" value="Nível 0" style="text;html=1;align=center;verticalAlign=middle;resizable=0;points=[];autosize=1;strokeColor=none;fillColor=none;fontSize=15;fontFamily=Garamond;fontColor=none;" vertex="1" parent="1">
          <mxGeometry y="240" width="80" height="30" as="geometry" />
        </mxCell>
        <mxCell id="ajuiZReFzju_EfFtEYsR-68" value="Nível 1" style="text;html=1;align=center;verticalAlign=middle;resizable=0;points=[];autosize=1;strokeColor=none;fillColor=none;fontSize=15;fontFamily=Garamond;fontColor=none;" vertex="1" parent="1">
          <mxGeometry y="905" width="80" height="30" as="geometry" />
        </mxCell>
      </root>
    </mxGraphModel>
  </diagram>
</mxfile>
